<svg width="32" height="37" viewBox="0 0 32 37" fill="none" xmlns="http://www.w3.org/2000/svg">
<path d="M15.475 11.2801C17.5328 10.9466 18.9305 9.00802 18.5969 6.95027C18.2633 4.89252 16.3248 3.4948 14.267 3.82838C12.2093 4.16196 10.8116 6.10051 11.1451 8.15826C11.4787 10.216 13.4173 11.6137 15.475 11.2801Z" fill="#414141"/>
<path d="M28.5548 26.9447L19.6992 25.3131V16.1729H19.7629C20.1446 16.1729 20.4938 16.4876 20.4976 16.834V22.2805C20.4976 23.7473 22.1406 24.6033 23.3422 23.7874L29.1813 19.823C30.0135 19.2579 30.2301 18.1251 29.6651 17.2929C29.1 16.4607 27.9673 16.244 27.1351 16.8092L24.1406 18.8423V16.8282C24.1406 16.8252 24.1406 16.8221 24.1406 16.8191C24.1287 14.4542 22.1649 12.5303 19.763 12.5303C18.7915 12.5303 11.13 12.5303 9.98455 12.5303C7.57875 12.5303 5.61177 14.4542 5.59985 16.8191V16.8282V18.894L2.82577 17.061C1.98642 16.5064 0.856613 16.7372 0.301979 17.5766C-0.252584 18.4159 -0.021785 19.5458 0.817562 20.1004L6.41718 23.8003C7.62012 24.5951 9.24272 23.7374 9.24272 22.2806V16.8342C9.24658 16.4878 9.59916 16.1731 9.98455 16.1731H10.0287V25.2552C9.23578 25.4562 3.09429 27.0133 2.35884 27.1997C1.41805 27.4382 0.747172 28.2687 0.711697 29.2386C0.676292 30.2085 1.2847 31.0856 2.20558 31.3922L16.0602 36.0044C17.2052 36.3855 18.443 35.7666 18.8244 34.6209C19.2057 33.4755 18.5863 32.238 17.4409 31.8567L10.6694 29.6025C10.6937 29.5944 15.8025 29.1094 15.8025 29.1094L14.1065 29.6219L17.778 30.8442C18.7609 31.1714 19.4827 31.9226 19.8096 32.8267L28.5474 31.2452C29.5862 31.0573 30.3421 30.1538 30.3439 29.0981C30.3458 28.0423 29.5929 27.1363 28.5548 26.9447Z" fill="#414141"/>
<path d="M30.9572 5.8682L29.1372 4.35931C28.8677 4.45347 28.5815 4.50282 28.2876 4.50282C27.6076 4.50282 26.9679 4.2404 26.4842 3.76345C26.4202 3.70042 26.3649 3.62856 26.3284 3.54653C26.2042 3.26764 26.2709 2.95902 26.471 2.75886L26.8045 2.42535C26.5461 2.21109 26.4333 1.87653 26.4801 1.54415C26.4921 1.45896 26.4927 1.37007 26.48 1.27899C26.4212 0.855323 26.0693 0.51901 25.6436 0.477715C25.1534 0.430111 24.7315 0.759835 24.6326 1.21057L24.0918 1.51575C24.0192 1.55677 24.0377 1.66614 24.1197 1.681L24.6868 1.78413C24.7298 1.88383 24.7895 1.97441 24.8624 2.05258C25.211 2.42612 25.3885 2.9281 25.3885 3.43906C25.3885 5.04778 26.6926 6.35188 28.3013 6.35188H30.7826C31.0388 6.35195 31.1543 6.03155 30.9572 5.8682Z" fill="#414141"/>
<path d="M28.2877 3.80172C28.7657 3.80172 29.2438 3.61929 29.6085 3.25458L30.6567 2.20631C30.292 1.8416 29.814 1.65918 29.3359 1.65918C28.8579 1.65918 28.3799 1.8416 28.0152 2.20631L26.9669 3.25458C27.3316 3.61929 27.8096 3.80172 28.2877 3.80172Z" fill="#414141"/>
</svg>
