<svg width="39" height="36" viewBox="0 0 39 36" fill="none" xmlns="http://www.w3.org/2000/svg">
<path d="M9.18855 3.41418H3.46811C2.84406 3.41418 2.33908 3.91916 2.33908 4.54322C2.33908 5.16727 2.84406 5.67225 3.46811 5.67225H9.18855C9.8126 5.67225 10.3176 5.16727 10.3176 4.54322C10.3176 3.91916 9.8126 3.41418 9.18855 3.41418Z" fill="#414141"/>
<path d="M9.18855 12.4464H3.46811C2.84406 12.4464 2.33908 12.9514 2.33908 13.5754C2.33908 14.1995 2.84406 14.7045 3.46811 14.7045H9.18855C9.8126 14.7045 10.3176 14.1995 10.3176 13.5754C10.3176 12.9514 9.8126 12.4464 9.18855 12.4464Z" fill="#414141"/>
<path d="M6.93058 7.9303H1.21015C0.586094 7.9303 0.0811157 8.43528 0.0811157 9.05933C0.0811157 9.68338 0.586094 10.1884 1.21015 10.1884H6.93058C7.55463 10.1884 8.05961 9.68338 8.05961 9.05933C8.05961 8.43528 7.55463 7.9303 6.93058 7.9303Z" fill="#414141"/>
<path d="M36.3608 13.5754H29.5113V9.05931C29.5113 7.07628 27.0855 6.03215 25.656 7.46346L16.6245 16.495C15.7424 17.3771 15.7424 18.806 16.6245 19.6881L21.8021 24.8658L15.4954 31.1725C14.6133 32.0545 14.6133 33.4834 15.4954 34.3655C16.3774 35.2475 17.8064 35.2476 18.6885 34.3655L26.5917 26.4623C27.4738 25.5802 27.4738 24.1513 26.5917 23.2692L21.414 18.0916L24.9952 14.5104V15.8335C24.9952 17.0805 26.0063 18.0916 27.2532 18.0916H36.3608C37.6077 18.0916 38.6188 17.0805 38.6188 15.8335C38.6188 14.5865 37.6077 13.5754 36.3608 13.5754Z" fill="#414141"/>
<path d="M21.1671 2.09995C20.2696 1.50344 19.0788 1.62146 18.318 2.3822L12.1083 8.59188C11.2263 9.47396 11.2263 10.9029 12.1083 11.7849C12.9904 12.667 14.4194 12.6669 15.3015 11.7849L20.2024 6.88396L21.8533 8.07321L24.0591 5.86738C24.4281 5.49841 24.8633 5.21201 25.3392 4.98839L21.1671 2.09995Z" fill="#414141"/>
<path d="M15.028 21.2846C14.4559 20.7125 14.074 20.0084 13.8727 19.2469L1.94714 31.1725C1.06506 32.0545 1.06506 33.4834 1.94714 34.3655C2.82914 35.2475 4.25812 35.2476 5.1402 34.3655L16.6246 22.8812L15.028 21.2846Z" fill="#414141"/>
<path d="M30.6401 6.80123C32.5108 6.80123 34.0272 5.28478 34.0272 3.41414C34.0272 1.54349 32.5108 0.0270386 30.6401 0.0270386C28.7695 0.0270386 27.253 1.54349 27.253 3.41414C27.253 5.28478 28.7695 6.80123 30.6401 6.80123Z" fill="#414141"/>
</svg>
