<svg width="39" height="40" viewBox="0 0 39 40" fill="none" xmlns="http://www.w3.org/2000/svg">
<path d="M32.5 13.0033C32.5006 10.5013 31.7793 8.05232 30.4225 5.9502C29.0657 3.84809 27.1311 2.18215 24.8509 1.15232C22.5707 0.122493 20.0418 -0.227472 17.5676 0.144424C15.0935 0.51632 12.7792 1.59428 10.9025 3.24893C9.02585 4.90358 7.66652 7.06463 6.98767 9.47273C6.30881 11.8808 6.33928 14.4337 7.07541 16.8249C7.81154 19.2161 9.22205 21.3441 11.1377 22.9535C13.0533 24.5629 15.3927 25.5853 17.875 25.898V39.0033H21.125V25.898C24.2646 25.4989 27.1512 23.9697 29.2448 21.5963C31.3385 19.2229 32.4957 16.1681 32.5 13.0033ZM8.12499 13.0033C8.12499 10.7535 8.79212 8.55426 10.042 6.68365C11.2919 4.81304 13.0685 3.35508 15.147 2.49413C17.2255 1.63319 19.5126 1.40792 21.7191 1.84683C23.9257 2.28574 25.9525 3.3691 27.5433 4.95992C29.1342 6.55075 30.2175 8.57758 30.6564 10.7841C31.0953 12.9906 30.8701 15.2778 30.0091 17.3563C29.1482 19.4348 27.6902 21.2113 25.8196 22.4612C23.949 23.7111 21.7498 24.3783 19.5 24.3783C16.4842 24.3748 13.5929 23.1753 11.4605 21.0428C9.32797 18.9103 8.12843 16.019 8.12499 13.0033Z" fill="#414141"/>
<path d="M29.25 13.0032C29.25 11.0749 28.6782 9.18981 27.6068 7.58643C26.5355 5.98305 25.0127 4.73337 23.2312 3.99541C21.4496 3.25746 19.4892 3.06438 17.5979 3.44058C15.7065 3.81679 13.9693 4.74539 12.6057 6.10895C11.2421 7.47251 10.3135 9.20979 9.93734 11.1011C9.56113 12.9924 9.75421 14.9528 10.4922 16.7344C11.2301 18.516 12.4798 20.0387 14.0832 21.1101C15.6866 22.1814 17.5716 22.7532 19.5 22.7532C22.0849 22.7503 24.5632 21.7221 26.391 19.8943C28.2189 18.0664 29.247 15.5882 29.25 13.0032ZM14.625 19.5032V16.2532H21.125V14.6282H17.875C17.0134 14.6272 16.1873 14.2845 15.578 13.6752C14.9688 13.0659 14.626 12.2399 14.625 11.3782V9.75324C14.626 8.8916 14.9688 8.06554 15.578 7.45627C16.1873 6.847 17.0134 6.50426 17.875 6.50324V4.87824H21.125V6.50324H24.375V9.75324H17.875V11.3782H21.125C21.9866 11.3793 22.8127 11.722 23.422 12.3313C24.0312 12.9405 24.374 13.7666 24.375 14.6282V16.2532C24.374 17.1149 24.0312 17.9409 23.422 18.5502C22.8127 19.1595 21.9866 19.5022 21.125 19.5032V21.1282H17.875V19.5032H14.625Z" fill="#414141"/>
<path d="M26.8125 34.9407C29.9025 34.9407 32.263 31.4787 32.3619 31.3312C32.4519 31.1973 32.4999 31.0396 32.4999 30.8782C32.4999 30.7169 32.4519 30.5592 32.3619 30.4253C32.263 30.2778 29.9025 26.8157 26.8125 26.8157C23.7226 26.8157 21.3621 30.2778 21.2632 30.4253C21.1732 30.5592 21.1252 30.7169 21.1252 30.8782C21.1252 31.0396 21.1732 31.1973 21.2632 31.3312C21.3621 31.4787 23.7226 34.9407 26.8125 34.9407Z" fill="#414141"/>
<path d="M12.1876 26.8157C9.09762 26.8157 6.7371 30.2778 6.63818 30.4253C6.54823 30.5592 6.5002 30.7169 6.5002 30.8782C6.5002 31.0396 6.54823 31.1973 6.63818 31.3312C6.7371 31.4787 9.09762 34.9407 12.1876 34.9407C15.2775 34.9407 17.638 31.4787 17.7369 31.3312C17.8269 31.1973 17.8749 31.0396 17.8749 30.8782C17.8749 30.7169 17.8269 30.5592 17.7369 30.4253C17.638 30.2778 15.2775 26.8157 12.1876 26.8157Z" fill="#414141"/>
<path d="M35.75 11.3783H39V14.6283H35.75V11.3783Z" fill="#414141"/>
<path d="M32.7595 3.47101L35.574 1.84601L37.199 4.66051L34.3845 6.28551L32.7595 3.47101Z" fill="#414141"/>
<path d="M32.76 22.5366L34.385 19.7221L37.1995 21.3471L35.5745 24.1616L32.76 22.5366Z" fill="#414141"/>
<path d="M0 11.3783H3.25V14.6283H0V11.3783Z" fill="#414141"/>
<path d="M1.79992 4.66046L3.42492 1.84596L6.23942 3.47096L4.61442 6.28546L1.79992 4.66046Z" fill="#414141"/>
<path d="M1.79992 21.3454L4.61442 19.7204L6.23942 22.5349L3.42492 24.1599L1.79992 21.3454Z" fill="#414141"/>
</svg>
